<svg width="64" height="86" viewBox="0 0 64 86" fill="none" xmlns="http://www.w3.org/2000/svg">
<path d="M0 14H64L60.5247 76.5547C60.2303 81.8539 55.8475 86 50.5401 86H13.4599C8.15253 86 3.76966 81.8539 3.47526 76.5547L0 14Z" fill="white"/>
<path d="M0 11C0 8.23858 2.23858 6 5 6H59C61.7614 6 64 8.23858 64 11V12H0V11Z" fill="white"/>
<path d="M19 6C19 2.68629 21.6863 0 25 0H39C42.3137 0 45 2.68629 45 6H41.4545V4.66667C41.4545 3.5621 40.5591 2.66667 39.4545 2.66667H24.5455C23.4409 2.66667 22.5455 3.5621 22.5455 4.66667V6H19Z" fill="white"/>
</svg>
